<svg width="73" height="47" viewBox="0 0 73 47" fill="none" xmlns="http://www.w3.org/2000/svg">
<path d="M29.5174 0L31.3389 0.149364L33.3123 0.746822L35.741 2.0911L36.0446 2.38983L36.9554 2.24047L38.9287 1.04555L41.0539 0.298729L42.42 0H44.0898L47.1257 0.746822L49.5544 1.79237L51.0724 2.83792L52.4385 4.33157L53.5011 6.57203L53.9565 9.11123V10.7542L53.5011 13.2934L52.7421 15.0858L51.376 17.4756L49.7062 19.5667L48.3401 21.0604L47.2775 22.2553L43.7862 25.6907L42.5718 26.7362L39.6877 29.5742L38.0179 30.7691L37.1072 31.0678H35.741L33.9195 30.1716L30.4281 26.7362L29.2138 25.6907L24.3563 20.911L23.2937 19.7161L21.7758 17.7744L20.4096 15.6833L19.4988 13.4428L19.0435 11.5011V8.06568L19.8024 5.67585L20.865 3.88347L22.383 2.38983L23.9009 1.49364L26.3297 0.597458L29.5174 0Z" fill="#00959C"/>
<path d="M71.1973 7.96613L72.0166 8.13013L72.5082 10.5903L72.9998 16.4945V19.6107L71.8527 23.0549L70.7056 25.679L68.2476 30.5992L67.2644 32.2393L65.9534 33.3874L62.5121 35.6835L58.907 37.8156L56.1212 39.6197L54.8102 40.7677L54.1547 41.9158L53.9909 46.836L53.827 47H43.3393L43.1754 46.836L43.0115 41.7518L42.8477 40.6037V39.2917L43.667 36.1755L44.978 33.7154L46.2889 32.0753L47.5999 30.5992L49.8941 28.7951L51.6967 27.9751L55.1379 27.1551L58.0876 26.827L59.2347 26.171L60.5457 25.023L62.676 22.2348L64.3147 20.5947L66.9366 19.1187L67.4282 18.9547H68.7392L69.7224 19.6107L69.0669 20.9228L66.9366 23.8749L65.2979 26.171L64.4786 27.1551L65.4618 26.663L66.6089 25.187L68.7392 22.2348L69.7224 20.9228L70.0502 20.1027L69.8863 19.1187L69.3947 18.6266L68.5753 18.1346L68.7392 16.0025L69.3947 10.9183L70.0502 8.95017L70.8695 8.13013L71.1973 7.96613Z" fill="#00959C"/>
<path d="M1.31096 7.96613L2.13032 8.13013L2.94967 8.95017L3.60515 10.7543L4.26063 16.1665L4.4245 17.9706L2.94967 19.2827L3.11354 20.5947L4.58837 22.5628L6.71869 25.515L8.19353 27.1551L8.84901 27.4831L7.70191 26.171L3.60515 20.4307L3.44128 19.4467L4.75224 18.7907L5.73547 18.9547L7.86578 20.1027L9.34062 21.2508L10.8155 22.7268L12.618 25.023L13.7651 26.171L14.9122 26.827L18.8451 27.3191L21.6309 28.1391L23.2696 28.9591L25.0722 30.2712L27.0386 32.2393L28.5135 34.5354L29.6606 36.9955L30.1522 38.7996V41.4238L29.9883 42.5718L29.8244 46.836L29.6606 47H19.3367L19.1729 46.836L19.009 42.4078L18.1896 40.7677V40.4397H17.8619V40.1117L17.2064 39.7837L12.9458 37.1595L9.17675 34.8634L6.88256 33.2234L5.40773 31.9113L3.44128 28.1391L1.31096 23.3829L0.163871 19.9387L0 18.9547V16.4945L0.491612 11.0823L0.983223 8.29414L1.31096 7.96613Z" fill="#00959C"/>
</svg>
