<svg width="87" height="61" viewBox="0 0 87 61" fill="none" xmlns="http://www.w3.org/2000/svg">
<path d="M37.2826 0L38.9046 0.136653L40.6616 0.683263L42.8242 1.91314L43.0945 2.18644L43.9055 2.04979L45.6626 0.956568L47.5548 0.273305L48.7713 0H50.2581L52.9613 0.683263L55.1238 1.63983L56.4754 2.5964L57.6919 3.96292L58.638 6.01271L59.0435 8.33581V9.83898L58.638 12.1621L57.9622 13.8019L56.7458 15.9883L55.259 17.9015L54.0426 19.268L53.0964 20.3612L49.9877 23.5042L48.9064 24.4608L46.3384 27.0572L44.8516 28.1504L44.0407 28.4237H42.8242L41.2023 27.6038L38.0936 24.4608L37.0123 23.5042L32.6872 19.1314L31.741 18.0381L30.3894 16.2617L29.173 14.3485L28.362 12.2987L27.9565 10.5222V7.37924L28.6323 5.1928L29.5785 3.55297L30.9301 2.18644L32.2817 1.36653L34.4443 0.54661L37.2826 0Z" fill="#00959C"/>
<path d="M74.3946 7.28815L75.1242 7.4382L75.5619 9.68894L75.9997 15.0907V17.9417L74.9783 21.0927L73.9569 23.4935L71.7682 27.995L70.8928 29.4955L69.7255 30.5459L66.6613 32.6466L63.4512 34.5972L60.9707 36.2478L59.8034 37.2981L59.2198 38.3485L59.0739 42.85L58.928 43H49.5896L49.4437 42.85L49.2978 38.1984L49.1519 37.1481V35.9477L49.8814 33.0967L51.0487 30.846L52.216 29.3455L53.3833 27.995L55.4261 26.3445L57.0311 25.5942L60.0953 24.844L62.7217 24.5439L63.7431 23.9437L64.9104 22.8933L66.8072 20.3425L68.2663 18.842L70.6009 17.4915L71.0387 17.3415H72.206L73.0814 17.9417L72.4978 19.1421L70.6009 21.843L69.1418 23.9437L68.4123 24.844L69.2877 24.3938L70.3091 23.0434L72.206 20.3425L73.0814 19.1421L73.3733 18.3918L73.2274 17.4915L72.7896 17.0414L72.0601 16.5912L72.206 14.6406L72.7896 9.98904L73.3733 8.18845L74.1028 7.4382L74.3946 7.28815Z" fill="#00959C"/>
<path d="M12.1673 7.28815L12.8969 7.4382L13.6264 8.18845L14.2101 9.83899L14.7937 14.7906L14.9396 16.4412L13.6264 17.6416L13.7723 18.842L15.0855 20.6426L16.9824 23.3435L18.2956 24.844L18.8793 25.1441L17.8579 23.9437L14.2101 18.6919L14.0642 17.7916L15.2315 17.1914L16.1069 17.3415L18.0038 18.3918L19.317 19.4422L20.6302 20.7926L22.2352 22.8933L23.2566 23.9437L24.278 24.5439L27.7799 24.994L30.2604 25.7443L31.7195 26.4945L33.3246 27.6949L35.0755 29.4955L36.3887 31.5962L37.4101 33.847L37.8478 35.4975V37.8983L37.7019 38.9487L37.556 42.85L37.4101 43H28.2176L28.0717 42.85L27.9258 38.7986L27.1962 37.2981V36.998H26.9044V36.6979L26.3208 36.3978L22.5271 33.997L19.1711 31.8963L17.1283 30.3958L15.8151 29.1954L14.0642 25.7443L12.1673 21.3928L11.1459 18.2418L11 17.3415V15.0907L11.4377 10.1391L11.8755 7.58825L12.1673 7.28815Z" fill="#00959C"/>
<path d="M0.946289 57V46.0909H5.6551C6.46476 46.0909 7.17321 46.2507 7.78045 46.5703C8.3877 46.8899 8.86 47.3391 9.19735 47.918C9.53471 48.4968 9.70339 49.1733 9.70339 49.9474C9.70339 50.7287 9.52939 51.4052 9.18137 51.9769C8.83691 52.5487 8.35218 52.989 7.72718 53.2979C7.10574 53.6069 6.37953 53.7614 5.54856 53.7614H2.73606V51.4602H4.95197C5.29998 51.4602 5.5965 51.3999 5.84153 51.2791C6.09011 51.1548 6.2801 50.979 6.41149 50.7518C6.54643 50.5245 6.6139 50.2564 6.6139 49.9474C6.6139 49.6349 6.54643 49.3686 6.41149 49.1484C6.2801 48.9247 6.09011 48.7543 5.84153 48.6371C5.5965 48.5163 5.29998 48.456 4.95197 48.456H3.90794V57H0.946289ZM13.773 52.3977V57H10.8327V46.0909H13.6665V50.3736H13.7517C13.9363 49.8516 14.2435 49.445 14.6732 49.1538C15.1029 48.859 15.6196 48.7116 16.2233 48.7116C16.8021 48.7116 17.3046 48.843 17.7307 49.1058C18.1604 49.3686 18.4925 49.7308 18.7268 50.1925C18.9648 50.6541 19.0819 51.1832 19.0784 51.7798V57H16.1381V52.3977C16.1416 51.9929 16.0404 51.6751 15.8344 51.4442C15.632 51.2134 15.3426 51.098 14.9662 51.098C14.7282 51.098 14.5187 51.1513 14.3376 51.2578C14.1601 51.3608 14.0216 51.5099 13.9221 51.7053C13.8263 51.897 13.7765 52.1278 13.773 52.3977ZM22.0267 60.0682C21.6894 60.0682 21.368 60.0415 21.0626 59.9883C20.7572 59.9386 20.4891 59.8693 20.2583 59.7805L20.8975 57.6925C21.1389 57.7777 21.3591 57.8327 21.558 57.8576C21.7604 57.8825 21.9326 57.8683 22.0747 57.815C22.2203 57.7617 22.325 57.6605 22.3889 57.5114L22.4529 57.3622L19.5764 48.8182H22.6446L23.9656 54.4858H24.0509L25.3932 48.8182H28.4827L25.4997 57.6818C25.3506 58.1328 25.134 58.5376 24.8499 58.8963C24.5693 59.2585 24.2 59.5444 23.7419 59.7539C23.2838 59.9634 22.7121 60.0682 22.0267 60.0682ZM36.7977 51.4815H34.0917C34.0775 51.3146 34.0189 51.1708 33.9159 51.0501C33.8129 50.9293 33.6798 50.837 33.5164 50.7731C33.3566 50.7056 33.1791 50.6719 32.9838 50.6719C32.7316 50.6719 32.515 50.718 32.3339 50.8104C32.1528 50.9027 32.064 51.0341 32.0676 51.2045C32.064 51.3253 32.1155 51.4371 32.222 51.5401C32.3321 51.6431 32.5434 51.723 32.8559 51.7798L34.5178 52.0781C35.3559 52.2308 35.9791 52.4883 36.3875 52.8505C36.7994 53.2092 37.0072 53.6903 37.0107 54.294C37.0072 54.8764 36.8332 55.3825 36.4887 55.8121C36.1478 56.2383 35.6808 56.5685 35.0878 56.8029C34.4983 57.0337 33.8254 57.1491 33.069 57.1491C31.819 57.1491 30.8406 56.8935 30.134 56.3821C29.4308 55.8707 29.0384 55.196 28.9568 54.358H31.8758C31.9149 54.6172 32.0427 54.8178 32.2593 54.9599C32.4795 55.0984 32.7565 55.1676 33.0903 55.1676C33.3602 55.1676 33.5821 55.1214 33.7561 55.0291C33.9337 54.9368 34.0242 54.8054 34.0278 54.6349C34.0242 54.4787 33.9461 54.3544 33.7934 54.2621C33.6443 54.1697 33.4099 54.0952 33.0903 54.0384L31.6414 53.7827C30.8069 53.6371 30.1819 53.3601 29.7664 52.9517C29.3509 52.5433 29.145 52.0178 29.1485 51.375C29.145 50.8068 29.2941 50.3256 29.596 49.9315C29.9014 49.5337 30.3364 49.2319 30.901 49.0259C31.4692 48.8164 32.1421 48.7116 32.9198 48.7116C34.1024 48.7116 35.0345 48.9567 35.7164 49.4467C36.4017 49.9368 36.7622 50.6151 36.7977 51.4815ZM38.1373 57V48.8182H41.0777V57H38.1373ZM39.6075 47.9659C39.2098 47.9659 38.8689 47.8345 38.5848 47.5717C38.3007 47.3089 38.1586 46.9929 38.1586 46.6236C38.1586 46.2543 38.3007 45.9382 38.5848 45.6754C38.8689 45.4126 39.2098 45.2812 39.6075 45.2812C40.0088 45.2812 40.3497 45.4126 40.6302 45.6754C40.9143 45.9382 41.0564 46.2543 41.0564 46.6236C41.0564 46.9929 40.9143 47.3089 40.6302 47.5717C40.3497 47.8345 40.0088 47.9659 39.6075 47.9659ZM46.5176 57.1491C45.6298 57.1491 44.8699 56.9734 44.2377 56.6218C43.6056 56.2667 43.1209 55.7731 42.7836 55.141C42.4462 54.5053 42.2775 53.7685 42.2775 52.9304C42.2775 52.0923 42.4462 51.3572 42.7836 50.7251C43.1209 50.0895 43.6056 49.5959 44.2377 49.2443C44.8699 48.8892 45.6298 48.7116 46.5176 48.7116C47.4054 48.7116 48.1653 48.8892 48.7974 49.2443C49.4295 49.5959 49.9142 50.0895 50.2516 50.7251C50.589 51.3572 50.7576 52.0923 50.7576 52.9304C50.7576 53.7685 50.589 54.5053 50.2516 55.141C49.9142 55.7731 49.4295 56.2667 48.7974 56.6218C48.1653 56.9734 47.4054 57.1491 46.5176 57.1491ZM46.5389 54.9759C46.7875 54.9759 47.0023 54.8924 47.1834 54.7255C47.3645 54.5586 47.5048 54.3207 47.6042 54.0117C47.7037 53.7028 47.7534 53.3352 47.7534 52.9091C47.7534 52.4794 47.7037 52.1119 47.6042 51.8065C47.5048 51.4975 47.3645 51.2596 47.1834 51.0927C47.0023 50.9258 46.7875 50.8423 46.5389 50.8423C46.2761 50.8423 46.0506 50.9258 45.8624 51.0927C45.6742 51.2596 45.5304 51.4975 45.4309 51.8065C45.3315 52.1119 45.2818 52.4794 45.2818 52.9091C45.2818 53.3352 45.3315 53.7028 45.4309 54.0117C45.5304 54.3207 45.6742 54.5586 45.8624 54.7255C46.0506 54.8924 46.2761 54.9759 46.5389 54.9759ZM62.0929 50.1818H59.0886C59.0673 49.9332 59.0105 49.7077 58.9181 49.5053C58.8294 49.3029 58.7051 49.1289 58.5453 48.9833C58.389 48.8342 58.199 48.7205 57.9753 48.6424C57.7516 48.5607 57.4977 48.5199 57.2136 48.5199C56.7164 48.5199 56.2956 48.6406 55.9512 48.8821C55.6103 49.1236 55.351 49.4698 55.1735 49.9208C54.9995 50.3718 54.9125 50.9134 54.9125 51.5455C54.9125 52.2131 55.0012 52.7724 55.1788 53.2234C55.3599 53.6708 55.6209 54.0082 55.9618 54.2354C56.3027 54.4592 56.7129 54.571 57.1923 54.571C57.4657 54.571 57.7108 54.5373 57.9274 54.4698C58.144 54.3988 58.3322 54.2976 58.492 54.1662C58.6518 54.0348 58.7814 53.8768 58.8809 53.6921C58.9838 53.5039 59.0531 53.2926 59.0886 53.0582L62.0929 53.0795C62.0574 53.5412 61.9277 54.0117 61.704 54.4911C61.4803 54.967 61.1625 55.4073 60.7505 55.8121C60.3422 56.2134 59.8361 56.5366 59.2324 56.7816C58.6287 57.0266 57.9274 57.1491 57.1284 57.1491C56.127 57.1491 55.2285 56.9343 54.4331 56.5046C53.6412 56.0749 53.0144 55.4428 52.5527 54.6083C52.0946 53.7738 51.8656 52.7528 51.8656 51.5455C51.8656 50.331 52.1 49.3082 52.5687 48.4773C53.0375 47.6428 53.6696 47.0124 54.465 46.5863C55.2605 46.1566 56.1483 45.9418 57.1284 45.9418C57.8173 45.9418 58.4512 46.0359 59.03 46.2241C59.6088 46.4123 60.1167 46.6875 60.5534 47.0497C60.9902 47.4084 61.3418 47.8505 61.6081 48.3761C61.8745 48.9016 62.036 49.5036 62.0929 50.1818ZM65.759 57.1278C65.2369 57.1278 64.7753 57.0426 64.374 56.8722C63.9763 56.6982 63.6638 56.4354 63.4365 56.0838C63.2093 55.7322 63.0956 55.2848 63.0956 54.7415C63.0956 54.294 63.172 53.9123 63.3247 53.5962C63.4774 53.2766 63.6904 53.0156 63.9639 52.8132C64.2373 52.6108 64.5551 52.4563 64.9173 52.3498C65.2831 52.2433 65.6773 52.174 66.0999 52.142C66.558 52.1065 66.9255 52.0639 67.2025 52.0142C67.483 51.9609 67.6855 51.8881 67.8097 51.7958C67.934 51.6999 67.9962 51.5739 67.9962 51.4176V51.3963C67.9962 51.1832 67.9145 51.0199 67.7512 50.9062C67.5878 50.7926 67.3783 50.7358 67.1226 50.7358C66.8421 50.7358 66.613 50.7979 66.4355 50.9222C66.2615 51.043 66.1567 51.2294 66.1212 51.4815H63.4152C63.4507 50.9844 63.6088 50.5263 63.8893 50.1072C64.1734 49.6847 64.5871 49.3473 65.1304 49.0952C65.6737 48.8395 66.352 48.7116 67.1652 48.7116C67.7512 48.7116 68.2767 48.7809 68.7419 48.9194C69.2071 49.0543 69.6031 49.2443 69.9298 49.4893C70.2565 49.7308 70.5051 50.0149 70.6755 50.3416C70.8495 50.6648 70.9365 51.0163 70.9365 51.3963V57H68.1879V55.8494H68.124C67.9607 56.1548 67.7618 56.4016 67.5274 56.5898C67.2966 56.7781 67.032 56.9148 66.7338 57C66.439 57.0852 66.1141 57.1278 65.759 57.1278ZM66.7178 55.2741C66.9415 55.2741 67.151 55.228 67.3463 55.1357C67.5452 55.0433 67.7068 54.9102 67.8311 54.7362C67.9553 54.5621 68.0175 54.3509 68.0175 54.1023V53.4205C67.9394 53.4524 67.8559 53.4826 67.7671 53.511C67.6819 53.5394 67.5896 53.5661 67.4901 53.5909C67.3943 53.6158 67.2913 53.6388 67.1812 53.6602C67.0747 53.6815 66.9628 53.701 66.8456 53.7188C66.6183 53.7543 66.4319 53.8129 66.2863 53.8945C66.1443 53.9727 66.0377 54.0703 65.9667 54.1875C65.8992 54.3011 65.8655 54.429 65.8655 54.571C65.8655 54.7983 65.9454 54.9723 66.1052 55.093C66.265 55.2138 66.4692 55.2741 66.7178 55.2741ZM72.3414 57V48.8182H75.1966V50.3736H75.2818C75.4309 49.7983 75.6671 49.3775 75.9902 49.1112C76.3169 48.8448 76.6987 48.7116 77.1355 48.7116C77.2633 48.7116 77.3894 48.7223 77.5137 48.7436C77.6415 48.7614 77.764 48.788 77.8812 48.8235V51.3324C77.7356 51.2827 77.5563 51.2454 77.3432 51.2205C77.1301 51.1957 76.9473 51.1832 76.7946 51.1832C76.5069 51.1832 76.2477 51.2489 76.0169 51.3803C75.7896 51.5082 75.6103 51.6893 75.4789 51.9237C75.3475 52.1545 75.2818 52.4261 75.2818 52.7386V57H72.3414ZM82.2971 57.1491C81.4235 57.1491 80.6706 56.9822 80.0385 56.6484C79.41 56.3111 78.9252 55.8281 78.5843 55.1996C78.247 54.5675 78.0783 53.8111 78.0783 52.9304C78.0783 52.0852 78.2488 51.3466 78.5897 50.7145C78.9306 50.0824 79.4118 49.5906 80.0332 49.239C80.6547 48.8874 81.388 48.7116 82.2331 48.7116C82.851 48.7116 83.4103 48.8075 83.911 48.9993C84.4118 49.1911 84.8397 49.4698 85.1948 49.8356C85.5499 50.1978 85.8233 50.6381 86.0151 51.1566C86.2069 51.6751 86.3027 52.2592 86.3027 52.9091V53.5909H78.9945V51.9716H83.5968C83.5932 51.7372 83.5328 51.5312 83.4157 51.3537C83.302 51.1726 83.1475 51.0323 82.9522 50.9329C82.7605 50.8299 82.5421 50.7784 82.2971 50.7784C82.0591 50.7784 81.8407 50.8299 81.6419 50.9329C81.443 51.0323 81.2832 51.1708 81.1625 51.3484C81.0453 51.5259 80.9831 51.7337 80.976 51.9716V53.7188C80.976 53.9815 81.0311 54.2159 81.1412 54.4219C81.2512 54.6278 81.4093 54.7894 81.6152 54.9066C81.8212 55.0238 82.0698 55.0824 82.361 55.0824C82.5634 55.0824 82.748 55.054 82.915 54.9972C83.0854 54.9403 83.231 54.8587 83.3517 54.7521C83.4725 54.642 83.5613 54.5107 83.6181 54.358H86.3027C86.2104 54.9261 85.992 55.4197 85.6476 55.8388C85.3031 56.2543 84.8468 56.5774 84.2786 56.8082C83.714 57.0355 83.0534 57.1491 82.2971 57.1491Z" fill="white"/>
</svg>
